<?xml version="1.0" encoding="UTF-8"?>

<!-- Custom logo svg created by Jillian Vondy, 2023 -->

<svg id="Layer_2" data-name="Layer 2" xmlns="http://www.w3.org/2000/svg" viewBox="0 0 192.44 39.85">
  <defs>
    <style>
      .cls-1 {
        fill: none;
      }

      .cls-2 {
        fill: #630;
      }
    </style>
  </defs>
  <g id="Layer_1-2" data-name="Layer 1">
    <g>
      <path class="cls-2" d="m40.23,34.4c.56-.37,1.03-1.15,1.03-1.88,0-1.37-.83-2.5-2.99-2.5h-4.24v9.56h4.4c2.41,0,3.35-1.26,3.35-2.8,0-1-.57-1.96-1.55-2.37Zm-3.62-2.74h1.03c.76,0,1.16.37,1.16,1.05s-.4,1.04-1.16,1.04h-1.03v-2.09Zm1.16,6.28h-1.16v-2.55h1.16c1,0,1.5.43,1.5,1.27s-.49,1.27-1.5,1.27Z"/>
      <path class="cls-2" d="m48.12,29.75c-2.93,0-5.3,2.12-5.3,5.05s2.37,5.05,5.3,5.05,5.27-2.12,5.27-5.05-2.36-5.05-5.27-5.05Zm0,8.08c-1.61,0-2.56-1.2-2.56-3.03s.96-3.03,2.56-3.03,2.53,1.19,2.53,3.03-.94,3.03-2.53,3.03Z"/>
      <path class="cls-2" d="m59.86,29.75c-2.93,0-5.3,2.12-5.3,5.05s2.37,5.05,5.3,5.05,5.27-2.12,5.27-5.05-2.36-5.05-5.27-5.05Zm0,8.08c-1.61,0-2.56-1.2-2.56-3.03s.96-3.03,2.56-3.03,2.53,1.19,2.53,3.03-.94,3.03-2.53,3.03Z"/>
      <polygon class="cls-2" points="75.44 30.02 72.67 30.02 69.34 34.24 69.34 30.02 66.76 30.02 66.76 39.58 69.34 39.58 69.34 35.26 72.97 39.58 76.07 39.58 71.73 34.57 75.44 30.02"/>
      <polygon class="cls-2" points="79.69 39.58 86.33 39.58 86.33 37.63 82.27 37.63 82.27 35.5 85.53 35.5 85.53 33.57 82.27 33.57 82.27 31.96 86.33 31.96 86.33 30.02 79.69 30.02 79.69 39.58"/>
      <path class="cls-2" d="m93.59,36.09l-2.6-6.07h-2.88v9.56h2.21v-5.21c0-.22-.06-.96-.06-1.02.03.11.26.8.35,1.02l2.15,5.21h1.53l2.15-5.21.35-1.02c-.02.06-.06.8-.06,1.02v5.21h2.28v-9.56h-2.82l-2.6,6.07Z"/>
      <path class="cls-2" d="m105.17,30.02h-4.08v9.56h2.58v-3.15h1.5c2.41,0,3.5-1.45,3.5-3.2s-1.1-3.2-3.5-3.2Zm-.62,4.7h-.88v-2.99h.88c1.1,0,1.56.57,1.56,1.5s-.46,1.5-1.56,1.5Z"/>
      <path class="cls-2" d="m114.99,29.75c-2.93,0-5.3,2.12-5.3,5.05s2.37,5.05,5.3,5.05,5.27-2.12,5.27-5.05-2.36-5.05-5.27-5.05Zm0,8.08c-1.61,0-2.56-1.2-2.56-3.03s.96-3.03,2.56-3.03,2.53,1.19,2.53,3.03-.94,3.03-2.53,3.03Z"/>
      <path class="cls-2" d="m129.56,32.97c0-1.55-1-2.95-3.33-2.95h-4.35v9.56h2.58v-3.68h.69l2.55,3.68h2.79l-2.79-3.93c1.13-.37,1.86-1.39,1.86-2.68Zm-3.98,1.29h-1.12v-2.53h1.12c.99,0,1.43.45,1.43,1.27s-.45,1.26-1.43,1.26Z"/>
      <rect class="cls-2" x="131.39" y="30.02" width="2.58" height="9.56"/>
      <path class="cls-2" d="m142.75,35.02c0,1.69-.67,2.6-2.06,2.6s-2.04-.91-2.04-2.6v-5h-2.61v5.15c0,3.23,2.05,4.68,4.62,4.68s4.62-1.45,4.62-4.68v-5.15h-2.53v5Z"/>
      <path class="cls-2" d="m155.44,30.02l-2.6,6.07-2.6-6.07h-2.88v9.56h2.21v-5.21c0-.22-.06-.96-.06-1.02.03.11.26.8.35,1.02l2.15,5.21h1.53l2.15-5.21.35-1.02c-.02.06-.06.8-.06,1.02v5.21h2.28v-9.56h-2.82Z"/>
    </g>
    <g>
      <path class="cls-2" d="m123.63,7.96c0-.65-.37-1.26-.99-1.53.36-.24.67-.74.67-1.21,0-.88-.53-1.61-1.92-1.61h-2.72v6.14h2.83c1.55,0,2.15-.81,2.15-1.8Zm-3.32-3.29h.67c.49,0,.75.24.75.68s-.26.67-.75.67h-.67v-1.34Zm0,4.03v-1.64h.75c.65,0,.96.28.96.82s-.32.82-.96.82h-.75Z"/>
      <polygon class="cls-2" points="128.22 3.62 126.79 5.94 125.35 3.62 123.53 3.62 125.94 7.3 125.94 9.76 127.6 9.76 127.6 7.3 130 3.62 128.22 3.62"/>
      <polygon class="cls-2" points="114.95 13.39 116.92 13.39 116.92 18.29 118.58 18.29 118.58 13.39 120.55 13.39 120.55 12.14 114.95 12.14 114.95 13.39"/>
      <polygon class="cls-2" points="125.41 14.35 122.98 14.35 122.98 12.14 121.32 12.14 121.32 18.29 122.98 18.29 122.98 15.75 125.41 15.75 125.41 18.29 127.06 18.29 127.06 12.14 125.41 12.14 125.41 14.35"/>
      <polygon class="cls-2" points="132.66 13.39 132.66 12.14 128.39 12.14 128.39 18.29 132.66 18.29 132.66 17.04 130.05 17.04 130.05 15.67 132.15 15.67 132.15 14.43 130.05 14.43 130.05 13.39 132.66 13.39"/>
    </g>
    <g>
      <path class="cls-2" d="m108.88,15.41l-.41.27c-.26.17-.5.33-.72.48-1.29.88-1.89,1.28-3.17,1.28-.93,0-1.15,0-1.15-4.17,0-5.11.33-7.03.6-7.73.24-.61.64-.83,1.78-1.25l.48-.17-.69-3.76-.6.13c-3.91.85-7.46,1.56-9.89,2.04l-.74-1.94-.52.14s-2.07.56-4.76.56c-1.12,0-2.42-.09-3.27-.16-.45-.03-.8-.06-.94-.06l-6.6,1.82-.76-2.87-.58.16s-5,1.34-8.87,1.97l-.5.08v.51c0,1.7-.17,3.17-1.08,6.16-1.44-4.18-2.48-6.77-4.41-8.09l-.22-.15-9.67,2.28c-1.39-1.61-3.45-2.7-5.39-2.82h-.22s-3.66,2.76-3.66,2.76c-.27-1.21-.95-2.19-1.94-2.77l-.23-.14-8.72,2.91.68,4,.61-.14c.13-.03.53-.11.76-.11.56,0,1.24,1.12,1.24,6.46,0,1.87-.08,3.54-.22,4.8-1.22-.55-2.22-4.25-5.36-17.32l-.13-.56-11.9,2.32.26,3.9.59-.03c.31-.02,1.19-.06,1.48.01,0,0,0,.02,0,.03,0,.63-.53,2.17-1.46,4.61-.88,2.3-1.58,3.98-2.21,5.28l-.55-.71-.47.36c-1.35,1.04-1.79,1.22-2.42,1.22-2.38,0-4.84-2.84-4.84-7.59,0-2.07.42-2.37,1.97-2.37,1.7,0,2.19.5,2.72,1.69l.15.35,3.61.08.09-.51c.02-.13.56-3.3.56-6.49v-.33l-.28-.18c-.08-.05-1.9-1.16-5.39-1.16h-.13l-.12.05c-.58.27-1.14.52-1.69.76C4.23,3.76,0,5.65,0,12.39c0,3.77,1.31,7.02,3.68,9.16,2.09,1.88,4.88,2.75,7.86,2.44l.2-.02,1.95-1.84c.27,1,.81,2.37,1.8,2.72l.18.07,9.66-2.9-.71-3.56-.59.12c-.73.15-1.62.28-1.91.04-.2-.17-.25-.64-.25-1.02,0-.1,0-.21,0-.32h3.67c.41,1.75.55,3.09.43,4l-.03.19.09.17c.16.3.29.57.42.81.6,1.2,1,1.99,2.1,2.48l.24.11,5.07-2.26.79,2.33.58-.22c4.23-1.64,9.12-2.44,9.17-2.44l.58-.09-.31-2.13c.12.33.23.63.33.92.66,1.87,1.02,2.89,2.88,3.62l.24.09,3.82-1.77c.6,1.28,1.38,1.7,1.48,1.75l.21.1,8.66-2.64-.34-1.65c.91,1.43,1.8,1.95,1.85,1.97l.28.16,6.48-3.26-.45-.85c-.51-.96-.99-1.86-.99-2.47,0-.56.41-1.92.97-3.81.05-.17.1-.34.15-.52.38,3.99.62,7.38.06,9.39l-.05.2.08.19c.78,1.94,1.64,2.97,2.64,3.17l.18.04,6-2.46.63,1.9.53-.12c.42-.1.8-.2,1.16-.3,1.23-.34,2.29-.63,4.72-.63,1.56,0,3.08.12,4.09.2.51.04.89.07,1.08.07h.27l1.95-2.24.98,3.04,1.36-.36c1.58-.43,2.62-.71,5.17-.71,1.46,0,2.53.09,3.4.17.65.06,1.21.1,1.77.1h.3l4.39-5.94-2.11-2.15Zm-31.26-9.93l.19,1.41h.53c.69-.02,1.1-.01,1.3.18.42.42.51,2.1.51,4.5s-.08,4.92-.2,6.45c-.2.05-.37.07-.48.07-.89,0-1.31-2.91-1.7-7.61-.23-2.89-.28-4.25-.15-5Zm-33.73,13.07s-.43.03-.63.03c-.32,0-.6,0-.67-2.71.24.24.53.71.99,1.63.17.37.32.71.46,1.04h-.14Zm17.32.08l-.22.08c-.26.05-.7.11-.87.11-.43,0-.75-1.03-.75-2.46,0-.74.08-2.62.21-4.74.52,1.51.96,2.64,1.28,3.49.44,1.14.7,1.83.7,2.2,0,.31-.18.95-.36,1.32Zm44.79,3.67c-.42-.01-.87-.05-1.37-.1-.89-.08-2-.17-3.5-.17-2.72,0-3.88.31-5.49.75l-.26.07-.65-2.02c.46-.28.93-.7,1.09-1.48.04-.2.08-.53.12-.94l.06-.63h0s.1-1.2.1-1.2l-.05.05v-.26c.09-1.68.15-3.87.15-5.21,0-3.52-.34-5.43-2.13-5.43-.12,0-.25,0-.38.02l-.19-1.94-3.02,2.21c-.13-.02-.29-.05-.43-.07-.48-.08-1.08-.19-1.56-.19-1.15,0-1.39.65-1.48,1.14-.12.7-.17,2.11-.19,3.17v.59s.58.02.58.02c1.53.05,3.22.04,5.45-.68l.32,1.21-3.48,1.85c-.37,0-.99-.05-1.7-.09l-1.2-.07v.63c0,3.36,0,5.21,2.74,5.21,2.09,0,3.64-.92,5.34-2.18l.64.68-4.38,5.03c-.18-.01-.43-.03-.72-.06-1.03-.08-2.58-.21-4.19-.21-2.59,0-3.78.33-5.04.67-.19.05-.39.11-.59.16l-.69-2.08-6.82,2.8c-.34-.15-.89-.65-1.54-2.22.62-2.49.25-6.33-.22-11.15l-.45-4.76-.87,3.07c-.38,1.36-.73,2.52-1.02,3.5-.66,2.21-1.02,3.42-1.02,4.15,0,.84.47,1.79,1.01,2.8l-4.79,2.41c-.38-.31-1.13-1.06-1.79-2.48.2-.48.37-1.13.37-1.59,0-.59-.26-1.27-.78-2.62-.5-1.31-1.26-3.28-2.21-6.33l-.93-2.96-.24,3.09c-.24,3.16-.43,6.76-.43,7.87,0,3.18,1.22,3.65,1.94,3.65.14,0,.33-.02.51-.04l.3,1.48-7.12,2.17c-.23-.2-.65-.65-.96-1.56l-.21-.63-4.53,2.1c-1.15-.51-1.36-1.1-1.96-2.81-.34-.95-.75-2.14-1.5-3.74-.85-1.7-1.36-2.46-2.61-2.59l-.66-.07v.67c.03,3.05.13,4.78,1.89,4.78.05,0,.1,0,.16,0l.23,1.58c-1.36.25-4.89.96-8.25,2.19l-.81-2.39-5.77,2.57c-.55-.32-.8-.83-1.29-1.81-.1-.21-.22-.43-.34-.67.11-1.12-.09-2.7-.59-4.71l-.11-.45h-5.65l-.08.5c-.07.41-.07.76-.07,1.01,0,.59.07,1.44.68,1.94.54.44,1.3.47,2.32.31l.27,1.34-8.2,2.46c-.44-.34-.94-1.55-1.11-2.76l-.17-1.14-3.26,3.08c-2.56.22-4.95-.54-6.74-2.16-2.12-1.91-3.28-4.84-3.28-8.27,0-5.96,3.54-7.54,8.89-9.94.51-.23,1.04-.47,1.58-.71,2.3.02,3.77.57,4.35.83-.03,2.24-.32,4.45-.46,5.42l-1.83-.04c-.64-1.28-1.55-2.06-3.65-2.06-2.65,0-3.16,1.31-3.16,3.56,0,5.01,2.6,8.79,6.04,8.79.94,0,1.62-.33,2.67-1.11l.97,1.25.43-.82c.76-1.44,1.59-3.37,2.69-6.25,1.18-3.11,1.54-4.29,1.54-5.04,0-.14,0-.57-.34-.89-.34-.33-.84-.4-1.81-.37l-.11-1.67,9.74-1.9c3.78,15.73,4.42,17.75,6.74,17.75.06,0,.11,0,.2,0l.48-.03.07-.48c.2-1.35.3-3.32.3-5.55,0-4.6-.41-7.66-2.43-7.66-.12,0-.26.01-.4.03l-.3-1.78,7.22-2.41c.78.56,1.23,1.54,1.26,2.72l.02,1.17,5.06-3.84c2.78,0,5.45,3.73,5.52,4.37,0,0,.09.55.09.98,0,1.74-1.52,3.59-4.65,5.64l-.55.36.41.51c.94,1.17,1.64,2.3,2.25,3.31,1.06,1.72,1.83,2.97,3.04,2.97.14,0,.32-.02.51-.05l.3-.05.19-.38c.06-.11.12-.23.17-.36.92-2.48,1.32-8.95,1.32-10.66s-.36-2.4-2.46-2.29h-.19s-.22-1.62-.22-1.62l8.92-2.11c1.69,1.33,2.72,4.34,4.25,8.8l.66,1.94.56-1.69c1.31-4,1.63-5.83,1.67-7.75,3.04-.53,6.55-1.41,7.91-1.76l.58,2.19c-1.01,1-1.05,1.95-.66,6.88.54,6.53,1.03,8.71,2.89,8.71.38,0,.87-.12,1.21-.22l.39-.11.04-.4c.14-1.48.24-4.41.24-6.98,0-3.49-.19-4.69-.87-5.36-.44-.43-1.01-.52-1.62-.53l-.22-1.62,6.32-1.76c.16,0,.43.03.78.05.87.06,2.2.16,3.36.16,2.06,0,3.74-.3,4.55-.48l.72,1.88.49-.1c2.32-.45,5.85-1.17,9.8-2.02l.29,1.56c-.94.37-1.64.79-2.02,1.76-.46,1.18-.68,3.85-.68,8.16,0,3.99.11,5.36,2.34,5.36,1.65,0,2.52-.59,3.84-1.49.1-.07.2-.13.3-.2l.7.72-3.43,4.63Zm-12.34-13.85l-.61.23c-2.06.76-3.58.86-5.02.84.03-1.13.09-2,.16-2.41.01-.07.02-.1.02-.11.03-.01.11-.03.28-.03.39,0,.93.09,1.36.17.4.07.63.11.81.11h.2l1.67-1.22.11,1.1.63-.1c.15-.02.59-.08.82-.08.3,0,.93,0,.93,4.23,0,.88-.03,2.37-.08,3.88l-.35.26c-2.03,1.53-3.31,2.26-5.05,2.26-1.21,0-1.51,0-1.54-3.38.83.05,1.49.09,1.85.09h.15l4.59-2.43-.9-3.38Zm-39.9-1.58c.6.01.61.11.61,1.11,0,2-.44,8.08-1.24,10.24-.01.03-.02.05-.03.08-.52.04-1.24-1.1-2.04-2.4-.52-.84-1.15-1.87-1.94-2.91,2.09-1.44,4.55-3.52,4.65-6.11Z"/>
      <path class="cls-2" d="m24.01,8.64l-.74-1.96-.51,1.69c-.58,1.9-1.02,3.49-1.35,4.86l-.18.74h4.67l-.26-.78c-.46-1.42-1.03-2.94-1.63-4.54Zm-1.26,4.13c.19-.72.4-1.5.64-2.35.3.81.59,1.6.85,2.35h-1.49Z"/>
      <path class="cls-2" d="m43.35,6.05c-.82,0-1.36.52-1.62,1.55-.19.78-.33,2.16-.35,3.68v.62s.6,0,.6,0c1.68-.02,4.5-.06,4.5-2.49,0-1.94-1.87-3.35-3.13-3.35Zm-.76,4.63c.05-1.36.18-2.32.3-2.79.16-.65.34-.65.46-.65.58,0,1.94.84,1.94,2.15,0,.75-.45,1.19-2.7,1.28Z"/>
    </g>
    <path class="cls-1" d="m178.97,12.77c-.26-.76-.55-1.54-.85-2.35-.24.85-.46,1.63-.64,2.35h1.49Z"/>
    <path class="cls-2" d="m178.74,8.64l-.74-1.96-.51,1.69c-.57,1.88-1.01,3.47-1.35,4.86l-.18.74h4.67l-.26-.78c-.46-1.42-1.03-2.94-1.63-4.54Zm-1.25,4.13l.64-2.35c.3.81.59,1.6.85,2.35h-1.49Zm13.79,5.02l-.53.14s-.27.07-.55.07c-1.41,0-2.28-3.07-5.72-17.39l-.13-.56-11.9,2.32.08,1.17-1.13-2.94-.52.14s-2.07.56-4.76.56c-1.12,0-2.41-.09-3.27-.16-.46-.03-.8-.06-.95-.06l-5.49,1.51.1-1.22-.35-.18c-.09-.05-2.11-1.09-5.76-1.08h-.16s-.14.08-.14.08c-.84.5-1.67.95-2.47,1.39-3.54,1.93-6.59,3.6-6.59,7.25,0,4.13,3.94,5.81,6.82,7.04,1.39.59,2.96,1.26,2.96,1.86,0,.21-.7.29-1.36.29-1.22,0-2.84-.23-3.57-1.29-.26-.39-.3-.72-.3-.72l-.03-.53-3.66-.17-.87,7.78.32.2c.09.05,2.24,1.34,6.79,1.34h.14l.12-.06c.56-.27,1.14-.54,1.72-.81,1.93-.88,4-1.83,5.44-3.25l1.25,3.76.53-.12c.42-.1.8-.2,1.16-.3,1.23-.34,2.29-.63,4.72-.63,1.56,0,3.08.12,4.09.2.51.04.89.07,1.07.07h.27l.16-.19c.31.68.76,1.31,1.38,1.53l.18.07,9.66-2.9-.71-3.56-.59.12c-.73.15-1.62.28-1.91.04-.2-.17-.25-.64-.25-1.02,0-.1,0-.21,0-.32h3.67c.41,1.75.55,3.1.43,4l-.03.19.09.17c.16.3.29.57.42.82.6,1.2,1,1.99,2.1,2.48l.24.11,8.91-3.97-1.17-3.27Zm-18.73-13.97l.16,2.44.59-.03c.31-.02,1.19-.06,1.48.01,0,0,0,.02,0,.03,0,.63-.53,2.17-1.46,4.61-.72,1.88-1.31,3.32-1.85,4.51-1.96,1.47-3.22,2.17-4.93,2.17-1.21,0-1.51,0-1.54-3.38.83.05,1.49.09,1.85.09h.15l4.59-2.43-.9-3.38-.61.23c-2.06.76-3.58.86-5.02.84.04-1.15.09-2,.16-2.41.01-.07.02-.1.02-.11.03-.01.11-.03.28-.03.39,0,.93.09,1.36.17.4.07.63.11.81.11h.2l4.68-3.42Zm11.01,19.89c-.55-.32-.8-.83-1.29-1.81-.1-.21-.22-.43-.34-.67.11-1.12-.08-2.7-.58-4.71l-.11-.45h-5.65l-.08.5c-.07.41-.07.76-.07,1.01,0,.59.07,1.44.68,1.94.54.44,1.3.47,2.32.31l.27,1.34-8.2,2.46c-.26-.21-.6-.75-.86-1.64l-.31-1.04-1.16,1.34c-.18-.01-.43-.03-.72-.06-1.03-.08-2.58-.21-4.19-.21-2.59,0-3.78.33-5.04.67-.19.05-.39.11-.59.16l-.68-2.04c.59-.36.91-.71,1.08-1.47.21-.98.35-4.82.35-7.8,0-3.49-.19-4.69-.87-5.35-.51-.51-1.21-.55-2-.53h-.55s-.18,2.23-.18,2.23h-1.62c-.14-.33-.38-.77-.78-1.09-.9-.74-3.18-1.15-4.11-1.15-1.37,0-1.85.77-1.85,1.42,0,1.3,1.55,1.94,3.52,2.76,2.82,1.17,6.32,2.62,6.32,6.26s-3.22,5-6.63,6.56c-.55.25-1.1.5-1.62.76-3.13-.02-4.99-.69-5.7-1l.65-5.87,1.56.07c.07.22.19.49.38.77.82,1.19,2.39,1.82,4.56,1.82.7,0,2.55,0,2.55-1.48,0-1.39-1.63-2.08-3.68-2.96-2.72-1.16-6.1-2.59-6.1-5.94,0-2.94,2.64-4.38,5.97-6.2.77-.42,1.56-.85,2.37-1.33,2.39,0,4.01.52,4.68.79l-.17,2.12,6.89-1.92c.16,0,.44.03.79.05.87.06,2.2.16,3.36.16,2.06,0,3.74-.3,4.55-.48l.51,1.32-3.67,2.68c-.13-.02-.29-.05-.44-.07-.48-.08-1.08-.19-1.56-.19-1.15,0-1.39.65-1.48,1.14-.11.69-.17,2.1-.19,3.17v.59s.58.02.58.02c1.54.06,3.22.05,5.45-.68l.32,1.21-3.48,1.85c-.37,0-.99-.05-1.7-.09l-1.2-.07v.63c0,3.36,0,5.21,2.74,5.21,2.27,0,3.88-1.08,5.77-2.5l.12-.09.06-.14c.57-1.24,1.18-2.73,1.94-4.72,1.18-3.11,1.53-4.29,1.53-5.04,0-.14,0-.57-.34-.89-.34-.33-.84-.4-1.81-.37l-.11-1.67,9.74-1.9c3.78,15.73,4.42,17.75,6.74,17.75.11,0,.21,0,.31-.02l.44,1.24-7.4,3.3Zm-33.15-14.95c-1.24-.51-2.78-1.15-2.78-1.66,0-.22.59-.23.66-.23.96,0,2.82.44,3.36.88.31.24.48.72.52.89l.11.46h3.62l.18-2.22c.3.02.49.07.6.18.43.42.51,2.1.51,4.5,0,.85-.01,1.72-.03,2.57-1.01-3-4.26-4.35-6.75-5.38Z"/>
  </g>
</svg>